<svg width="1238" height="538" viewBox="0 0 1238 538" fill="none" xmlns="http://www.w3.org/2000/svg">
<rect width="1238" height="538" rx="10" fill="#D9D9D9"/>
<rect x="513" y="241.5" width="212" height="55" rx="12" fill="white"/>
<path d="M545.992 277.836C543.944 277.836 542.32 277.26 541.12 276.108C539.92 274.94 539.32 273.26 539.32 271.068V267.132C539.32 264.94 539.92 263.268 541.12 262.116C542.32 260.948 543.944 260.364 545.992 260.364C548.008 260.364 549.56 260.924 550.648 262.044C551.752 263.164 552.304 264.692 552.304 266.628V266.772H549.736V266.556C549.736 265.42 549.424 264.492 548.8 263.772C548.192 263.052 547.256 262.692 545.992 262.692C544.712 262.692 543.712 263.084 542.992 263.868C542.272 264.636 541.912 265.708 541.912 267.084V271.116C541.912 272.476 542.272 273.548 542.992 274.332C543.712 275.116 544.712 275.508 545.992 275.508C547.256 275.508 548.192 275.148 548.8 274.428C549.424 273.692 549.736 272.764 549.736 271.644V271.236H552.304V271.572C552.304 273.508 551.752 275.036 550.648 276.156C549.56 277.276 548.008 277.836 545.992 277.836ZM555.246 277.5V260.7H557.718V267.348H558.102C558.262 267.044 558.486 266.748 558.774 266.46C559.078 266.172 559.47 265.94 559.95 265.764C560.446 265.572 561.07 265.476 561.822 265.476C562.718 265.476 563.51 265.676 564.198 266.076C564.902 266.476 565.454 267.044 565.854 267.78C566.254 268.5 566.454 269.372 566.454 270.396V277.5H563.982V270.588C563.982 269.564 563.726 268.812 563.214 268.332C562.702 267.836 561.998 267.588 561.102 267.588C560.078 267.588 559.254 267.924 558.63 268.596C558.022 269.268 557.718 270.244 557.718 271.524V277.5H555.246ZM575.556 277.836C574.372 277.836 573.316 277.596 572.388 277.116C571.476 276.62 570.756 275.916 570.228 275.004C569.7 274.092 569.436 273.012 569.436 271.764V271.404C569.436 270.156 569.7 269.084 570.228 268.188C570.756 267.276 571.476 266.572 572.388 266.076C573.316 265.58 574.372 265.332 575.556 265.332C576.74 265.332 577.796 265.58 578.724 266.076C579.652 266.572 580.38 267.276 580.908 268.188C581.436 269.084 581.7 270.156 581.7 271.404V271.764C581.7 273.012 581.436 274.092 580.908 275.004C580.38 275.916 579.652 276.62 578.724 277.116C577.796 277.596 576.74 277.836 575.556 277.836ZM575.556 275.628C576.644 275.628 577.524 275.284 578.196 274.596C578.884 273.892 579.228 272.924 579.228 271.692V271.476C579.228 270.244 578.892 269.284 578.22 268.596C577.548 267.892 576.66 267.54 575.556 267.54C574.484 267.54 573.604 267.892 572.916 268.596C572.244 269.284 571.908 270.244 571.908 271.476V271.692C571.908 272.924 572.244 273.892 572.916 274.596C573.604 275.284 574.484 275.628 575.556 275.628ZM590.321 277.836C589.137 277.836 588.081 277.596 587.153 277.116C586.241 276.62 585.521 275.916 584.993 275.004C584.465 274.092 584.201 273.012 584.201 271.764V271.404C584.201 270.156 584.465 269.084 584.993 268.188C585.521 267.276 586.241 266.572 587.153 266.076C588.081 265.58 589.137 265.332 590.321 265.332C591.505 265.332 592.561 265.58 593.489 266.076C594.417 266.572 595.145 267.276 595.673 268.188C596.201 269.084 596.465 270.156 596.465 271.404V271.764C596.465 273.012 596.201 274.092 595.673 275.004C595.145 275.916 594.417 276.62 593.489 277.116C592.561 277.596 591.505 277.836 590.321 277.836ZM590.321 275.628C591.409 275.628 592.289 275.284 592.961 274.596C593.649 273.892 593.993 272.924 593.993 271.692V271.476C593.993 270.244 593.657 269.284 592.985 268.596C592.313 267.892 591.425 267.54 590.321 267.54C589.249 267.54 588.369 267.892 587.681 268.596C587.009 269.284 586.673 270.244 586.673 271.476V271.692C586.673 272.924 587.009 273.892 587.681 274.596C588.369 275.284 589.249 275.628 590.321 275.628ZM604.391 277.836C602.887 277.836 601.639 277.5 600.647 276.828C599.655 276.156 599.047 275.14 598.823 273.78L601.127 273.228C601.255 273.884 601.471 274.404 601.775 274.788C602.079 275.172 602.455 275.444 602.903 275.604C603.367 275.764 603.863 275.844 604.391 275.844C605.175 275.844 605.775 275.692 606.191 275.388C606.623 275.084 606.839 274.692 606.839 274.212C606.839 273.732 606.639 273.38 606.239 273.156C605.839 272.932 605.247 272.748 604.463 272.604L603.647 272.46C602.847 272.316 602.119 272.108 601.463 271.836C600.807 271.564 600.287 271.188 599.903 270.708C599.519 270.228 599.327 269.612 599.327 268.86C599.327 267.74 599.743 266.876 600.575 266.268C601.407 265.644 602.511 265.332 603.887 265.332C605.215 265.332 606.303 265.636 607.151 266.244C608.015 266.836 608.575 267.644 608.831 268.668L606.527 269.316C606.383 268.596 606.079 268.092 605.615 267.804C605.151 267.5 604.575 267.348 603.887 267.348C603.215 267.348 602.687 267.476 602.303 267.732C601.919 267.972 601.727 268.316 601.727 268.764C601.727 269.244 601.911 269.596 602.279 269.82C602.663 270.044 603.175 270.212 603.815 270.324L604.655 270.468C605.503 270.612 606.279 270.812 606.983 271.068C607.687 271.324 608.239 271.692 608.639 272.172C609.055 272.652 609.263 273.292 609.263 274.092C609.263 275.276 608.823 276.196 607.943 276.852C607.063 277.508 605.879 277.836 604.391 277.836ZM617.576 277.836C616.376 277.836 615.328 277.588 614.432 277.092C613.536 276.58 612.832 275.868 612.32 274.956C611.824 274.028 611.576 272.956 611.576 271.74V271.452C611.576 270.22 611.824 269.148 612.32 268.236C612.816 267.308 613.504 266.596 614.384 266.1C615.28 265.588 616.312 265.332 617.48 265.332C618.616 265.332 619.608 265.588 620.456 266.1C621.32 266.596 621.992 267.292 622.472 268.188C622.952 269.084 623.192 270.132 623.192 271.332V272.268H614.096C614.128 273.308 614.472 274.14 615.128 274.764C615.8 275.372 616.632 275.676 617.624 275.676C618.552 275.676 619.248 275.468 619.712 275.052C620.192 274.636 620.56 274.156 620.816 273.612L622.856 274.668C622.632 275.116 622.304 275.588 621.872 276.084C621.456 276.58 620.904 276.996 620.216 277.332C619.528 277.668 618.648 277.836 617.576 277.836ZM614.12 270.372H620.672C620.608 269.476 620.288 268.78 619.712 268.284C619.136 267.772 618.384 267.516 617.456 267.516C616.528 267.516 615.768 267.772 615.176 268.284C614.6 268.78 614.248 269.476 614.12 270.372ZM632.213 277.5V260.7H638.885C639.909 260.7 640.821 260.908 641.621 261.324C642.437 261.724 643.069 262.3 643.517 263.052C643.981 263.788 644.213 264.676 644.213 265.716V266.028C644.213 267.068 643.973 267.964 643.493 268.716C643.029 269.468 642.397 270.044 641.597 270.444C640.797 270.844 639.893 271.044 638.885 271.044H634.805V277.5H632.213ZM634.805 268.692H638.621C639.533 268.692 640.261 268.452 640.805 267.972C641.349 267.492 641.621 266.836 641.621 266.004V265.764C641.621 264.916 641.349 264.252 640.805 263.772C640.261 263.292 639.533 263.052 638.621 263.052H634.805V268.692ZM646.746 277.5V260.7H649.218V267.348H649.602C649.762 267.044 649.986 266.748 650.274 266.46C650.578 266.172 650.97 265.94 651.45 265.764C651.946 265.572 652.57 265.476 653.322 265.476C654.218 265.476 655.01 265.676 655.698 266.076C656.402 266.476 656.954 267.044 657.354 267.78C657.754 268.5 657.954 269.372 657.954 270.396V277.5H655.482V270.588C655.482 269.564 655.226 268.812 654.714 268.332C654.202 267.836 653.498 267.588 652.602 267.588C651.578 267.588 650.754 267.924 650.13 268.596C649.522 269.268 649.218 270.244 649.218 271.524V277.5H646.746ZM667.056 277.836C665.872 277.836 664.816 277.596 663.888 277.116C662.976 276.62 662.256 275.916 661.728 275.004C661.2 274.092 660.936 273.012 660.936 271.764V271.404C660.936 270.156 661.2 269.084 661.728 268.188C662.256 267.276 662.976 266.572 663.888 266.076C664.816 265.58 665.872 265.332 667.056 265.332C668.24 265.332 669.296 265.58 670.224 266.076C671.152 266.572 671.88 267.276 672.408 268.188C672.936 269.084 673.2 270.156 673.2 271.404V271.764C673.2 273.012 672.936 274.092 672.408 275.004C671.88 275.916 671.152 276.62 670.224 277.116C669.296 277.596 668.24 277.836 667.056 277.836ZM667.056 275.628C668.144 275.628 669.024 275.284 669.696 274.596C670.384 273.892 670.728 272.924 670.728 271.692V271.476C670.728 270.244 670.392 269.284 669.72 268.596C669.048 267.892 668.16 267.54 667.056 267.54C665.984 267.54 665.104 267.892 664.416 268.596C663.744 269.284 663.408 270.244 663.408 271.476V271.692C663.408 272.924 663.744 273.892 664.416 274.596C665.104 275.284 665.984 275.628 667.056 275.628ZM680.272 277.5C679.552 277.5 678.976 277.284 678.544 276.852C678.128 276.42 677.92 275.844 677.92 275.124V267.756H674.656V265.668H677.92V261.756H680.392V265.668H683.92V267.756H680.392V274.692C680.392 275.172 680.616 275.412 681.064 275.412H683.536V277.5H680.272ZM691.946 277.836C690.762 277.836 689.706 277.596 688.778 277.116C687.866 276.62 687.146 275.916 686.618 275.004C686.09 274.092 685.826 273.012 685.826 271.764V271.404C685.826 270.156 686.09 269.084 686.618 268.188C687.146 267.276 687.866 266.572 688.778 266.076C689.706 265.58 690.762 265.332 691.946 265.332C693.13 265.332 694.186 265.58 695.114 266.076C696.042 266.572 696.77 267.276 697.298 268.188C697.826 269.084 698.09 270.156 698.09 271.404V271.764C698.09 273.012 697.826 274.092 697.298 275.004C696.77 275.916 696.042 276.62 695.114 277.116C694.186 277.596 693.13 277.836 691.946 277.836ZM691.946 275.628C693.034 275.628 693.914 275.284 694.586 274.596C695.274 273.892 695.618 272.924 695.618 271.692V271.476C695.618 270.244 695.282 269.284 694.61 268.596C693.938 267.892 693.05 267.54 691.946 267.54C690.874 267.54 689.994 267.892 689.306 268.596C688.634 269.284 688.298 270.244 688.298 271.476V271.692C688.298 272.924 688.634 273.892 689.306 274.596C689.994 275.284 690.874 275.628 691.946 275.628Z" fill="black"/>
</svg>
