<svg width="143" height="59" viewBox="0 0 143 59" fill="none" xmlns="http://www.w3.org/2000/svg">
<rect y="0.5" width="143" height="58" rx="3" fill="black"/>
<path d="M37.921 20.796C37.217 20.84 36.7 20.928 36.37 21.06C36.062 21.192 35.853 21.445 35.743 21.819C35.633 22.193 35.578 22.798 35.578 23.634V40.002C35.578 40.838 35.633 41.443 35.743 41.817C35.875 42.191 36.095 42.444 36.403 42.576C36.711 42.708 37.217 42.796 37.921 42.84V43.5C36.579 43.434 34.632 43.401 32.08 43.401C29.418 43.401 27.46 43.434 26.206 43.5V42.84C26.998 42.796 27.57 42.708 27.922 42.576C28.296 42.444 28.549 42.191 28.681 41.817C28.813 41.443 28.879 40.838 28.879 40.002V23.139L20.926 43.467H20.398L11.092 22.281V37.032C11.092 38.66 11.158 39.837 11.29 40.563C11.422 41.267 11.708 41.784 12.148 42.114C12.61 42.444 13.369 42.686 14.425 42.84V43.5C13.523 43.434 12.291 43.401 10.729 43.401C9.563 43.401 8.65 43.434 7.99 43.5V42.84C8.672 42.686 9.178 42.455 9.508 42.147C9.838 41.817 10.058 41.322 10.168 40.662C10.278 40.002 10.333 39.012 10.333 37.692V23.634C10.333 22.798 10.267 22.193 10.135 21.819C10.025 21.445 9.816 21.192 9.508 21.06C9.2 20.928 8.694 20.84 7.99 20.796V20.136C8.65 20.202 9.563 20.235 10.729 20.235C13.369 20.235 15.646 20.202 17.56 20.136L23.797 34.161L29.209 20.235H32.08C34.632 20.235 36.579 20.202 37.921 20.136V20.796ZM39.5328 31.257C41.6888 31.367 43.4598 31.708 44.8458 32.28C46.2538 32.852 47.2768 33.567 47.9148 34.425C48.5528 35.261 48.8718 36.152 48.8718 37.098C48.8718 39.254 48.0138 40.86 46.2978 41.916C44.5818 42.972 42.1398 43.5 38.9718 43.5C38.3338 43.5 37.7948 43.489 37.3548 43.467C35.8588 43.423 34.3958 43.401 32.9658 43.401C30.3918 43.401 28.4778 43.434 27.2238 43.5V42.84C27.9278 42.796 28.4338 42.708 28.7418 42.576C29.0718 42.444 29.2918 42.191 29.4018 41.817C29.5118 41.443 29.5668 40.838 29.5668 40.002V23.634C29.5668 22.798 29.5008 22.193 29.3688 21.819C29.2588 21.445 29.0498 21.192 28.7418 21.06C28.4338 20.928 27.9278 20.84 27.2238 20.796V20.136C28.4778 20.202 30.3698 20.235 32.8998 20.235L36.6948 20.202C37.1348 20.18 37.6408 20.169 38.2128 20.169C41.1168 20.169 43.3278 20.642 44.8458 21.588C46.3858 22.512 47.1558 23.766 47.1558 25.35C47.1558 26.164 46.8698 26.989 46.2978 27.825C45.7258 28.639 44.8678 29.354 43.7238 29.97C42.5798 30.586 41.1828 30.993 39.5328 31.191V31.257ZM38.0478 20.796C37.5418 20.796 37.1568 20.873 36.8928 21.027C36.6508 21.181 36.4858 21.456 36.3978 21.852C36.3098 22.248 36.2658 22.842 36.2658 23.634V31.092H37.1568C38.3448 31.092 39.1698 30.608 39.6318 29.64C40.1158 28.65 40.3578 27.341 40.3578 25.713C40.3578 24.041 40.1708 22.809 39.7968 22.017C39.4448 21.203 38.8618 20.796 38.0478 20.796ZM38.4108 42.741C40.7648 42.741 41.9418 40.816 41.9418 36.966C41.9418 35.228 41.5238 33.908 40.6878 33.006C39.8518 32.104 38.5318 31.653 36.7278 31.653H36.2658V40.002C36.2658 40.794 36.3208 41.377 36.4308 41.751C36.5408 42.125 36.7388 42.389 37.0248 42.543C37.3328 42.675 37.7948 42.741 38.4108 42.741Z" fill="#9747FF"/>
<path d="M58.752 38V21.2H69.336V23.552H61.344V28.376H68.664V30.728H61.344V35.648H69.456V38H58.752ZM74.9663 38L70.9823 26.168H73.5983L76.7422 36.176H77.1263L80.2703 26.168H82.8863L78.9023 38H74.9663ZM90.2871 38.336C89.0871 38.336 88.0391 38.088 87.1431 37.592C86.2471 37.08 85.5431 36.368 85.0311 35.456C84.5351 34.528 84.2871 33.456 84.2871 32.24V31.952C84.2871 30.72 84.5351 29.648 85.0311 28.736C85.5271 27.808 86.2151 27.096 87.0951 26.6C87.9911 26.088 89.0231 25.832 90.1911 25.832C91.3271 25.832 92.3191 26.088 93.1671 26.6C94.0311 27.096 94.7031 27.792 95.1831 28.688C95.6631 29.584 95.9031 30.632 95.9031 31.832V32.768H86.8071C86.8391 33.808 87.1831 34.64 87.8391 35.264C88.5111 35.872 89.3431 36.176 90.3351 36.176C91.2631 36.176 91.9591 35.968 92.4231 35.552C92.9031 35.136 93.2711 34.656 93.5271 34.112L95.5671 35.168C95.3431 35.616 95.0151 36.088 94.5831 36.584C94.1671 37.08 93.6151 37.496 92.9271 37.832C92.2391 38.168 91.3591 38.336 90.2871 38.336ZM86.8311 30.872H93.3831C93.3191 29.976 92.9991 29.28 92.4231 28.784C91.8471 28.272 91.0951 28.016 90.1671 28.016C89.2391 28.016 88.4791 28.272 87.8871 28.784C87.3111 29.28 86.9591 29.976 86.8311 30.872ZM98.8787 38V26.168H101.303V27.944H101.687C101.911 27.464 102.311 27.016 102.887 26.6C103.463 26.184 104.319 25.976 105.455 25.976C106.351 25.976 107.143 26.176 107.831 26.576C108.535 26.976 109.087 27.544 109.487 28.28C109.887 29 110.087 29.872 110.087 30.896V38H107.615V31.088C107.615 30.064 107.359 29.312 106.847 28.832C106.335 28.336 105.631 28.088 104.735 28.088C103.711 28.088 102.887 28.424 102.263 29.096C101.655 29.768 101.351 30.744 101.351 32.024V38H98.8787ZM117.756 38C117.036 38 116.46 37.784 116.028 37.352C115.612 36.92 115.404 36.344 115.404 35.624V28.256H112.14V26.168H115.404V22.256H117.876V26.168H121.404V28.256H117.876V35.192C117.876 35.672 118.1 35.912 118.548 35.912H121.02V38H117.756ZM129.156 38.336C127.652 38.336 126.404 38 125.412 37.328C124.42 36.656 123.812 35.64 123.588 34.28L125.892 33.728C126.02 34.384 126.236 34.904 126.54 35.288C126.844 35.672 127.22 35.944 127.668 36.104C128.132 36.264 128.628 36.344 129.156 36.344C129.94 36.344 130.54 36.192 130.956 35.888C131.388 35.584 131.604 35.192 131.604 34.712C131.604 34.232 131.404 33.88 131.004 33.656C130.604 33.432 130.012 33.248 129.228 33.104L128.412 32.96C127.612 32.816 126.884 32.608 126.228 32.336C125.572 32.064 125.052 31.688 124.668 31.208C124.284 30.728 124.092 30.112 124.092 29.36C124.092 28.24 124.508 27.376 125.34 26.768C126.172 26.144 127.276 25.832 128.652 25.832C129.98 25.832 131.068 26.136 131.916 26.744C132.78 27.336 133.34 28.144 133.596 29.168L131.292 29.816C131.148 29.096 130.844 28.592 130.38 28.304C129.916 28 129.34 27.848 128.652 27.848C127.98 27.848 127.452 27.976 127.068 28.232C126.684 28.472 126.492 28.816 126.492 29.264C126.492 29.744 126.676 30.096 127.044 30.32C127.428 30.544 127.94 30.712 128.58 30.824L129.42 30.968C130.268 31.112 131.044 31.312 131.748 31.568C132.452 31.824 133.004 32.192 133.404 32.672C133.82 33.152 134.028 33.792 134.028 34.592C134.028 35.776 133.588 36.696 132.708 37.352C131.828 38.008 130.644 38.336 129.156 38.336Z" fill="white"/>
</svg>
