<svg width="143" height="58" viewBox="0 0 143 58" fill="none" xmlns="http://www.w3.org/2000/svg">
<rect width="143" height="58" rx="3" fill="white"/>
<path d="M37.921 20.296C37.217 20.34 36.7 20.428 36.37 20.56C36.062 20.692 35.853 20.945 35.743 21.319C35.633 21.693 35.578 22.298 35.578 23.134V39.502C35.578 40.338 35.633 40.943 35.743 41.317C35.875 41.691 36.095 41.944 36.403 42.076C36.711 42.208 37.217 42.296 37.921 42.34V43C36.579 42.934 34.632 42.901 32.08 42.901C29.418 42.901 27.46 42.934 26.206 43V42.34C26.998 42.296 27.57 42.208 27.922 42.076C28.296 41.944 28.549 41.691 28.681 41.317C28.813 40.943 28.879 40.338 28.879 39.502V22.639L20.926 42.967H20.398L11.092 21.781V36.532C11.092 38.16 11.158 39.337 11.29 40.063C11.422 40.767 11.708 41.284 12.148 41.614C12.61 41.944 13.369 42.186 14.425 42.34V43C13.523 42.934 12.291 42.901 10.729 42.901C9.563 42.901 8.65 42.934 7.99 43V42.34C8.672 42.186 9.178 41.955 9.508 41.647C9.838 41.317 10.058 40.822 10.168 40.162C10.278 39.502 10.333 38.512 10.333 37.192V23.134C10.333 22.298 10.267 21.693 10.135 21.319C10.025 20.945 9.816 20.692 9.508 20.56C9.2 20.428 8.694 20.34 7.99 20.296V19.636C8.65 19.702 9.563 19.735 10.729 19.735C13.369 19.735 15.646 19.702 17.56 19.636L23.797 33.661L29.209 19.735H32.08C34.632 19.735 36.579 19.702 37.921 19.636V20.296ZM39.5328 30.757C41.6888 30.867 43.4598 31.208 44.8458 31.78C46.2538 32.352 47.2768 33.067 47.9148 33.925C48.5528 34.761 48.8718 35.652 48.8718 36.598C48.8718 38.754 48.0138 40.36 46.2978 41.416C44.5818 42.472 42.1398 43 38.9718 43C38.3338 43 37.7948 42.989 37.3548 42.967C35.8588 42.923 34.3958 42.901 32.9658 42.901C30.3918 42.901 28.4778 42.934 27.2238 43V42.34C27.9278 42.296 28.4338 42.208 28.7418 42.076C29.0718 41.944 29.2918 41.691 29.4018 41.317C29.5118 40.943 29.5668 40.338 29.5668 39.502V23.134C29.5668 22.298 29.5008 21.693 29.3688 21.319C29.2588 20.945 29.0498 20.692 28.7418 20.56C28.4338 20.428 27.9278 20.34 27.2238 20.296V19.636C28.4778 19.702 30.3698 19.735 32.8998 19.735L36.6948 19.702C37.1348 19.68 37.6408 19.669 38.2128 19.669C41.1168 19.669 43.3278 20.142 44.8458 21.088C46.3858 22.012 47.1558 23.266 47.1558 24.85C47.1558 25.664 46.8698 26.489 46.2978 27.325C45.7258 28.139 44.8678 28.854 43.7238 29.47C42.5798 30.086 41.1828 30.493 39.5328 30.691V30.757ZM38.0478 20.296C37.5418 20.296 37.1568 20.373 36.8928 20.527C36.6508 20.681 36.4858 20.956 36.3978 21.352C36.3098 21.748 36.2658 22.342 36.2658 23.134V30.592H37.1568C38.3448 30.592 39.1698 30.108 39.6318 29.14C40.1158 28.15 40.3578 26.841 40.3578 25.213C40.3578 23.541 40.1708 22.309 39.7968 21.517C39.4448 20.703 38.8618 20.296 38.0478 20.296ZM38.4108 42.241C40.7648 42.241 41.9418 40.316 41.9418 36.466C41.9418 34.728 41.5238 33.408 40.6878 32.506C39.8518 31.604 38.5318 31.153 36.7278 31.153H36.2658V39.502C36.2658 40.294 36.3208 40.877 36.4308 41.251C36.5408 41.625 36.7388 41.889 37.0248 42.043C37.3328 42.175 37.7948 42.241 38.4108 42.241Z" fill="#9747FF"/>
<path d="M58.752 37.5V20.7H69.336V23.052H61.344V27.876H68.664V30.228H61.344V35.148H69.456V37.5H58.752ZM74.9663 37.5L70.9823 25.668H73.5983L76.7422 35.676H77.1263L80.2703 25.668H82.8863L78.9023 37.5H74.9663ZM90.2871 37.836C89.0871 37.836 88.0391 37.588 87.1431 37.092C86.2471 36.58 85.5431 35.868 85.0311 34.956C84.5351 34.028 84.2871 32.956 84.2871 31.74V31.452C84.2871 30.22 84.5351 29.148 85.0311 28.236C85.5271 27.308 86.2151 26.596 87.0951 26.1C87.9911 25.588 89.0231 25.332 90.1911 25.332C91.3271 25.332 92.3191 25.588 93.1671 26.1C94.0311 26.596 94.7031 27.292 95.1831 28.188C95.6631 29.084 95.9031 30.132 95.9031 31.332V32.268H86.8071C86.8391 33.308 87.1831 34.14 87.8391 34.764C88.5111 35.372 89.3431 35.676 90.3351 35.676C91.2631 35.676 91.9591 35.468 92.4231 35.052C92.9031 34.636 93.2711 34.156 93.5271 33.612L95.5671 34.668C95.3431 35.116 95.0151 35.588 94.5831 36.084C94.1671 36.58 93.6151 36.996 92.9271 37.332C92.2391 37.668 91.3591 37.836 90.2871 37.836ZM86.8311 30.372H93.3831C93.3191 29.476 92.9991 28.78 92.4231 28.284C91.8471 27.772 91.0951 27.516 90.1671 27.516C89.2391 27.516 88.4791 27.772 87.8871 28.284C87.3111 28.78 86.9591 29.476 86.8311 30.372ZM98.8787 37.5V25.668H101.303V27.444H101.687C101.911 26.964 102.311 26.516 102.887 26.1C103.463 25.684 104.319 25.476 105.455 25.476C106.351 25.476 107.143 25.676 107.831 26.076C108.535 26.476 109.087 27.044 109.487 27.78C109.887 28.5 110.087 29.372 110.087 30.396V37.5H107.615V30.588C107.615 29.564 107.359 28.812 106.847 28.332C106.335 27.836 105.631 27.588 104.735 27.588C103.711 27.588 102.887 27.924 102.263 28.596C101.655 29.268 101.351 30.244 101.351 31.524V37.5H98.8787ZM117.756 37.5C117.036 37.5 116.46 37.284 116.028 36.852C115.612 36.42 115.404 35.844 115.404 35.124V27.756H112.14V25.668H115.404V21.756H117.876V25.668H121.404V27.756H117.876V34.692C117.876 35.172 118.1 35.412 118.548 35.412H121.02V37.5H117.756ZM129.156 37.836C127.652 37.836 126.404 37.5 125.412 36.828C124.42 36.156 123.812 35.14 123.588 33.78L125.892 33.228C126.02 33.884 126.236 34.404 126.54 34.788C126.844 35.172 127.22 35.444 127.668 35.604C128.132 35.764 128.628 35.844 129.156 35.844C129.94 35.844 130.54 35.692 130.956 35.388C131.388 35.084 131.604 34.692 131.604 34.212C131.604 33.732 131.404 33.38 131.004 33.156C130.604 32.932 130.012 32.748 129.228 32.604L128.412 32.46C127.612 32.316 126.884 32.108 126.228 31.836C125.572 31.564 125.052 31.188 124.668 30.708C124.284 30.228 124.092 29.612 124.092 28.86C124.092 27.74 124.508 26.876 125.34 26.268C126.172 25.644 127.276 25.332 128.652 25.332C129.98 25.332 131.068 25.636 131.916 26.244C132.78 26.836 133.34 27.644 133.596 28.668L131.292 29.316C131.148 28.596 130.844 28.092 130.38 27.804C129.916 27.5 129.34 27.348 128.652 27.348C127.98 27.348 127.452 27.476 127.068 27.732C126.684 27.972 126.492 28.316 126.492 28.764C126.492 29.244 126.676 29.596 127.044 29.82C127.428 30.044 127.94 30.212 128.58 30.324L129.42 30.468C130.268 30.612 131.044 30.812 131.748 31.068C132.452 31.324 133.004 31.692 133.404 32.172C133.82 32.652 134.028 33.292 134.028 34.092C134.028 35.276 133.588 36.196 132.708 36.852C131.828 37.508 130.644 37.836 129.156 37.836Z" fill="black"/>
</svg>
