<svg width="24" height="24" viewBox="0 0 24 24" fill="none" xmlns="http://www.w3.org/2000/svg">
<path fill-rule="evenodd" clip-rule="evenodd" d="M16.5 12.75H12.75V16.5C12.75 16.9125 12.4148 17.25 12 17.25C11.5852 17.25 11.25 16.9125 11.25 16.5V12.75H7.5C7.08525 12.75 6.75 12.4125 6.75 12C6.75 11.5875 7.08525 11.25 7.5 11.25H11.25V7.5C11.25 7.0875 11.5852 6.75 12 6.75C12.4148 6.75 12.75 7.0875 12.75 7.5V11.25H16.5C16.9147 11.25 17.25 11.5875 17.25 12C17.25 12.4125 16.9147 12.75 16.5 12.75ZM12 0C5.37225 0 0 5.37 0 12C0 18.63 5.37225 24 12 24C18.6278 24 24 18.63 24 12C24 5.37 18.6278 0 12 0Z" fill="white"/>
</svg>
