<svg width="65" height="65" viewBox="0 0 65 65" fill="none" xmlns="http://www.w3.org/2000/svg">
<circle cx="32.5" cy="32.5" r="31.6465" fill="#D9D9D9" stroke="#9747FF" stroke-width="1.70706"/>
<path d="M18.6966 46.9793C15.9311 46.9793 13.729 46.2239 12.0902 44.7132C10.4771 43.2024 9.67049 41.0899 9.67049 38.3757V35.8407H14.7404V38.3757C14.7404 39.5792 15.0733 40.5266 15.7391 41.218C16.4048 41.8837 17.3394 42.2166 18.5429 42.2166C19.6696 42.2166 20.5402 41.8837 21.1547 41.218C21.7949 40.5522 22.1149 39.6048 22.1149 38.3757V24.1645H17.5059V19.5554H30.2576V24.1645H27.1849V38.3757C27.1849 41.1668 26.4295 43.3048 24.9188 44.79C23.408 46.2495 21.334 46.9793 18.6966 46.9793ZM33.6511 46.4416V41.9861H37.1847V24.0108H33.6511V19.5554H44.7128C48.3232 19.5554 51.063 20.4772 52.9323 22.3208C54.8271 24.1389 55.7745 26.8531 55.7745 30.4635V35.5335C55.7745 39.1439 54.8271 41.8709 52.9323 43.7145C51.063 45.5326 48.3232 46.4416 44.7128 46.4416H33.6511ZM42.2546 41.8325H44.7896C46.8381 41.8325 48.336 41.2948 49.2834 40.2193C50.2309 39.1439 50.7046 37.6331 50.7046 35.6871V30.3099C50.7046 28.3382 50.2309 26.8275 49.2834 25.7776C48.336 24.7022 46.8381 24.1645 44.7896 24.1645H42.2546V41.8325Z" fill="black"/>
</svg>
