<svg width="21" height="15" viewBox="0 0 21 15" fill="none" xmlns="http://www.w3.org/2000/svg">
<path d="M13.5 15H0V10.5C0.79565 10.5 1.55871 10.1839 2.12132 9.62132C2.68393 9.05871 3 8.29565 3 7.5C3 6.70435 2.68393 5.94129 2.12132 5.37868C1.55871 4.81607 0.79565 4.5 0 4.5V0H13.5V3.75H15V0H21V4.5C20.2044 4.5 19.4413 4.81607 18.8787 5.37868C18.3161 5.94129 18 6.70435 18 7.5C18 8.29565 18.3161 9.05871 18.8787 9.62132C19.4413 10.1839 20.2044 10.5 21 10.5V15H15V11.25H13.5V15ZM13.5 5.25V9.75H15V5.25H13.5Z" fill="black"/>
</svg>
